# AST/ASF file generated using VICON BodyLanguage
# -----------------------------------------------
:version 1.10
:name VICON
:units
  mass 1.0
  length 0.45
  angle deg
:documentation
   .ast/.asf automatically generated from VICON data using
   VICON BodyBuilder and BodyLanguage model FoxedUp or BRILLIANT.MOD
:root
   order TX TY TZ RX RY RZ
   axis XYZ
   position 0 0 0  
   orientation 0 0 0 
:bonedata
  begin
     id 1 
     name lhipjoint
     direction 0.567725 -0.736092 0.368589 
     length 2.42353 
     axis 0 0 0  XYZ
  end
  begin
     id 2 
     name lfemur
     direction 0.34202 -0.939693 0  
     length 7.24894  
     axis 0 0 20  XYZ
    dof rx ry rz
    limits (-160.0 20.0)
           (-70.0 70.0)
           (-60.0 70.0)
  end
  begin
     id 3 
     name ltibia
     direction 0.34202 -0.939693 0   
     length 7.6997   
     axis 0 0 20   XYZ
    dof rx
    limits (-10.0 170.0)
  end
  begin
     id 4 
     name lfoot
     direction 0.100767 -0.276854 0.955614   
     length 2.37556   
     axis -90 7.62852e-016 20   XYZ
    dof rx rz
    limits (-45.0 90.0)
           (-70.0 20.0)
  end
  begin
     id 5 
     name ltoes
     direction 1.53592e-011 -4.21894e-011 1   
     length 1.18363   
     axis -90 7.62852e-016 20   XYZ
    dof rx
    limits (-90.0 20.0)
  end
  begin
     id 6 
     name rhipjoint
     direction -0.556459 -0.742938 0.372017   
     length 2.4012  
     axis 0 0 0  XYZ 
  end
  begin
     id 7 
     name rfemur
     direction -0.34202 -0.939693 0   
     length 7.5119   
     axis 0 0 -20   XYZ
    dof rx ry rz
    limits (-160.0 20.0)
           (-70.0 70.0)
           (-70.0 60.0)
  end
  begin
     id 8 
     name rtibia
     direction -0.34202 -0.939693 0   
     length 7.50155   
     axis 0 0 -20   XYZ
    dof rx
    limits (-10.0 170.0)
 end
 begin
     id 9 
     name rfoot
     direction -0.118427 -0.325376 0.938139   
     length 2.32487  
     axis -90 -7.62852e-016 -20   XYZ
    dof rx rz
    limits (-45.0 90.0)
           (-20.0 70.0)
  end
  begin
     id 10 
     name rtoes
     direction -1.53525e-011 -4.21868e-011 1   
     length 1.15233   
     axis -90 -7.62852e-016 -20   XYZ
    dof rx
    limits (-90.0 20.0)
  end
  begin
     id 11 
     name lowerback
     direction 0.0287568 0.999577 -0.00434502   
     length 2.15243   
     axis 0 0 0   XYZ
    dof rx ry rz
    limits (-20.0 45.0)
           (-30.0 30.0)
           (-30.0 30.0)
  end
  begin
     id 12 
     name upperback
     direction 0.0294009 0.99956 0.00404628   
     length 2.15427   
     axis 0 0 0   XYZ
    dof rx ry rz
    limits (-20.0 45.0)
           (-30.0 30.0)
           (-30.0 30.0)
  end
  begin
     id 13 
     name thorax
     direction 0.0151014 0.999868 0.0059419   
     length 2.14898   
     axis 0 0 0   XYZ
    dof rx ry rz
    limits (-20.0 45.0)
           (-30.0 30.0)
           (-30.0 30.0)
  end
  begin
     id 14 
     name lowerneck
     direction -0.0249197 0.989906 0.139515   
     length 1.6861   
     axis 0 0 0   XYZ
    dof rx ry rz
    limits (-20.0 45.0)
           (-30.0 30.0)
           (-30.0 30.0)
  end
  begin
     id 15 
     name upperneck
     direction 0.0438463 0.988795 -0.142693   
     length 1.71276   
     axis 0 0 0   XYZ
    dof rx ry rz
    limits (-20.0 45.0)
           (-30.0 30.0)
           (-30.0 30.0)
  end
  begin
     id 16
     name head
     direction 0.0148499 0.997845 -0.0639186  
     length 1.7209  
     axis 0 0 0   XYZ
    dof rx ry rz
    limits (-20.0 45.0)
           (-30.0 30.0)
           (-30.0 30.0)
  end
  begin
     id 17 
     name lclavicle
     direction 0.940298 0.323464 -0.105876  
     length 3.9048  
     axis 0 0 0   XYZ
    dof ry rz
    limits (-20.0 10.0)
           (0.0 20.0)
  end
  begin
     id 18 
     name lhumerus
     direction 1 -4.48954e-011 -4.9675e-028   
     length 4.6851   
     axis 180 -30 -90   XYZ
    dof rx ry rz
    limits (-60.0 90.0)
           (-90.0 90.0)
           (-90.0 90.0)
  end
  begin
     id 19
     name lradius
     direction 1 -4.48992e-011 -1.03359e-026   
     length 3.39626   
     axis 180 -30 -90   XYZ
    dof rx
    limits (-10.0 170.0)
  end
  begin
     id 20
     name lwrist
     direction 1 -4.48906e-011 -1.67336e-026   
     length 1.69813   
     axis 9.90442e-015 90 90   XYZ
    dof ry
    limits (-180.0 0.0)
 end
  begin
     id 21 
     name lhand
     direction 1 -4.49006e-011 -3.34673e-026   
     length 0.486078   
     axis 2.1355e-014 90 90   XYZ
    dof rx rz
    limits (-90.0 90.0)
           (-45.0 45.0)
  end
  begin
     id 22 
     name lfingers
     direction 1 -4.48992e-011 -6.69345e-026   
     length 0.391889   
     axis 4.27099e-014 90 90   XYZ
    dof rx
    limits (0.0 90.0)
  end
  begin
     id 23
     name lthumb
     direction 0.707107 -6.34926e-011 0.707107   
     length 0.562676   
     axis -90 45 2.85299e-015   XYZ
    dof rx rz
    limits (-45.0 45.0)
           (-45.0 45.0)
  end
  begin
     id 24 
     name rclavicle
     direction -0.882459 0.414895 -0.221648   
     length 3.44646  
     axis 0 0 0   XYZ 
    dof ry rz
    limits (-10.0 20.0)
           (-20.0 0.0)
  end
  begin
     id 25 
     name rhumerus
     direction -1 -4.48962e-011 -2.37984e-027  
     length 5.55576   
     axis 180 30 90   XYZ
    dof rx ry rz
    limits (-90.0 60.0)
           (-90.0 90.0)
           (-90.0 90.0)
  end
  begin
     id 26 
     name rradius
     direction -1 -4.48982e-011 -6.86791e-027   
     length 3.32774   
     axis 180 30 90   XYZ
    dof rx
    limits (-10.0 170.0)
  end
  begin
     id 27 
     name rwrist
     direction -1 -4.48961e-011 -1.67336e-026   
     length 1.66387   
     axis 9.90442e-015 -90 -90   XYZ
    dof ry
    limits (-180.0 0.0)
  end
  begin
     id 28
     name rhand
     direction -1 -4.4897e-011 -3.34673e-026   
     length 0.507628   
     axis 2.1355e-014 -90 -90   XYZ
    dof rx rz
    limits (-90.0 90.0)
           (-45.0 45.0)
  end
  begin
     id 29
     name rfingers
     direction -1 -4.48854e-011 -6.69345e-026   
     length 0.409263   
     axis 4.27099e-014 -90 -90   XYZ
    dof rx
    limits (0.0 90.0)
  end
  begin
     id 30
     name rthumb
     direction -0.707107 -6.34913e-011 0.707107   
     length 0.587622   
     axis -90 -45 -2.85299e-015   XYZ
    dof rx rz
    limits (-45.0 45.0)
           (-45.0 45.0)
  end
:hierarchy
  begin
    root lhipjoint rhipjoint lowerback
    lhipjoint lfemur
    lfemur ltibia
    ltibia lfoot
    lfoot ltoes
    rhipjoint rfemur
    rfemur rtibia
    rtibia rfoot
    rfoot rtoes
    lowerback upperback
    upperback thorax
    thorax lowerneck lclavicle rclavicle
    lowerneck upperneck
    upperneck head
    lclavicle lhumerus
    lhumerus lradius
    lradius lwrist
    lwrist lhand lthumb
    lhand lfingers
    rclavicle rhumerus
    rhumerus rradius
    rradius rwrist
    rwrist rhand rthumb
    rhand rfingers
  end

#!OML:ASF E:\motion texture\Top Level 1\Subject 1\Session 1\male.ASF
:FULLY-SPECIFIED
:DEGREES
86
root 40.7518 17.6574 5.61851 130.268 -85.4824 -121.966
lowerback -4.15651 -0.243289 2.78675
upperback -2.00402 -0.531992 3.23234
thorax 0.278414 -0.305513 1.733
lowerneck -18.3264 -3.70727 -6.79815
upperneck 11.2397 -4.59209 8.15067
head 6.77572 -1.81714 3.24188
rclavicle 7.65321e-015 9.54166e-015
rhumerus -35.2446 -4.08615 -80.4791
rradius 31.2517
rwrist 4.55856
rhand -13.9544 -13.3765
rfingers 7.12502
rthumb 12.1731 -43.0023
lclavicle 7.65321e-015 9.54166e-015
lhumerus -39.8745 5.14855 86.5162
lradius 32.3706
lwrist -19.7002
lhand -11.0693 17.2204
lfingers 7.12502
lthumb 14.9537 46.6605
rfemur -12.0321 1.83714 26.7976
rtibia 23.7101
rfoot -14.7283 -9.89312
rtoes 12.5778
lfemur -10.8536 -0.712682 -13.5425
ltibia 21.6484
lfoot -14.6928 2.19664
ltoes 2.13237
87
root 40.7388 17.646 5.60294 128.381 -85.3201 -120.188
lowerback -4.05016 -0.211977 3.02093
upperback -1.94755 -0.497759 3.29584
thorax 0.275158 -0.29005 1.66911
lowerneck -18.3864 -3.71702 -6.81126
upperneck 11.2859 -4.59248 8.10146
head 6.79951 -1.82012 3.22768
rclavicle -5.76476e-015 1.66979e-014
rhumerus -35.2838 -3.79724 -80.6971
rradius 31.8061
rwrist 4.17652
rhand -13.8901 -13.2966
rfingers 7.12502
rthumb 12.2351 -42.9188
lclavicle -5.76476e-015 1.66979e-014
lhumerus -39.885 5.02081 86.5725
lradius 32.4841
lwrist -19.5799
lhand -11.0212 17.3287
lfingers 7.12502
lthumb 15.0001 46.7654
rfemur -11.8473 1.79834 27.1131
rtibia 23.7151
rfoot -14.8096 -9.82884
rtoes 12.5101
lfemur -11.591 -0.56688 -13.2699
ltibia 23.3159
lfoot -14.9759 2.19327
ltoes 1.30579
88
root 40.7265 17.635 5.58706 126.367 -85.1434 -118.284
lowerback -3.99373 -0.185443 3.27459
upperback -1.86216 -0.47452 3.36623
thorax 0.329636 -0.279531 1.60061
lowerneck -18.4098 -3.72208 -6.82948
upperneck 11.2808 -4.58532 8.05888
head 6.80036 -1.82041 3.21731
rclavicle 1.14053e-014 -3.4191e-014
rhumerus -35.271 -3.52296 -80.9163
rradius 32.3978
rwrist 3.81446
rhand -13.7664 -13.2244
rfingers 7.12502
rthumb 12.3544 -42.8394
lclavicle 1.14053e-014 -3.4191e-014
lhumerus -39.8507 4.94158 86.6136
lradius 32.5837
lwrist -19.4644
lhand -11.0028 17.407
lfingers 7.12502
lthumb 15.0178 46.8423
rfemur -11.6577 1.74331 27.4518
rtibia 23.706
rfoot -14.8859 -9.76235
rtoes 12.4599
lfemur -12.4412 -0.420348 -12.9734
ltibia 25.1706
lfoot -15.1819 2.17962
ltoes 0.282632
89
root 40.7153 17.6248 5.5709 124.421 -84.9622 -116.44
lowerback -3.93564 -0.161642 3.52328
upperback -1.78326 -0.454857 3.44446
thorax 0.376774 -0.27082 1.54294
lowerneck -18.3996 -3.72662 -6.8371
upperneck 11.248 -4.5746 7.98204
head 6.78516 -1.82235 3.19439
rclavicle 1.963e-015 -4.13472e-014
rhumerus -35.2479 -3.25383 -81.1272
rradius 33.0329
rwrist 3.46642
rhand -13.6244 -13.1469
rfingers 7.12502
rthumb 12.4913 -42.7536
lclavicle 1.963e-015 -4.13472e-014
lhumerus -39.8264 4.7697 86.7608
lradius 32.7687
lwrist -19.1528
lhand -11.1326 18.293
lfingers 7.12502
lthumb 14.8927 47.7377
rfemur -11.4782 1.67307 27.7936
rtibia 23.6891
rfoot -14.9534 -9.68902
rtoes 12.4332
lfemur -13.4341 -0.250987 -12.6733
ltibia 27.2448
lfoot -15.2764 2.13768
ltoes -1.01351
90
root 40.7057 17.6157 5.55413 122.571 -84.7791 -114.678
lowerback -3.88002 -0.143785 3.75212
upperback -1.72378 -0.442423 3.53556
thorax 0.405722 -0.266034 1.50949
lowerneck -18.3029 -3.72056 -6.8705
upperneck 11.1853 -4.54865 7.91867
head 6.7457 -1.81903 3.18232
rclavicle -3.35449e-015 1.82882e-014
rhumerus -35.2367 -2.9574 -81.3378
rradius 33.725
rwrist 3.09047
rhand -13.4954 -13.116
rfingers 7.12502
rthumb 12.6156 -42.715
lclavicle -3.35449e-015 1.82882e-014
lhumerus -39.829 4.71933 86.8506
lradius 32.9095
lwrist -18.9588
lhand -11.1997 18.8941
lfingers 7.12502
lthumb 14.8281 48.3436
rfemur -11.3203 1.59584 28.1364
rtibia 23.6736
rfoot -15.0161 -9.6184
rtoes 12.4312
lfemur -14.5952 -0.0429033 -12.3661
ltibia 29.5566
lfoot -15.2286 2.03576
ltoes -2.51906
91
root 40.6978 17.6083 5.53673 120.785 -84.6071 -112.97
lowerback -3.78625 -0.127171 3.94784
upperback -1.68854 -0.427059 3.63437
thorax 0.388786 -0.26036 1.50296
lowerneck -18.1927 -3.71751 -6.89756
upperneck 11.1235 -4.52487 7.82786
head 6.70359 -1.81895 3.16007
rclavicle 2.78299e-015 -1.59028e-014
rhumerus -35.2264 -2.6566 -81.5428
rradius 34.4675
rwrist 2.67142
rhand -13.4279 -13.1129
rfingers 7.12502
rthumb 12.6807 -42.7079
lclavicle 2.78299e-015 -1.59028e-014
lhumerus -39.8499 4.69809 86.9501
lradius 33.0258
lwrist -18.7176
lhand -11.3685 19.4913
lfingers 7.12502
lthumb 14.6655 48.9527
rfemur -11.1798 1.50685 28.4678
rtibia 23.6542
rfoot -15.073 -9.5546
rtoes 12.4432
lfemur -15.9406 0.20654 -12.063
ltibia 32.1201
lfoot -15.001 1.8479
ltoes -4.24249
